<?xml version="1.0" encoding="UTF-8"?>
<svg id="Capa_1" data-name="Capa 1" xmlns="http://www.w3.org/2000/svg" viewBox="0 0 67.58 56.13">
  <defs>
    <style>
      .cls-1 {
        fill: #fff;
        stroke-width: 0px;
      }
    </style>
  </defs>
  <path class="cls-1" d="M66.09.18c-7.39,2.85-14.77,5.69-22.16,8.54-11.73,4.52-23.45,9.04-35.18,13.56-2.7,1.04-5.39,2.08-8.09,3.12-.25.1-.76.34-.65.66,0,.01,0,.02.01.03,0,.02,0,.03.02.05.06.09.17.13.31.15,4.09,1.72,8.19,3.43,12.28,5.15,1.53.64,3.15,1.56,4.76,2.01,2.13,5.64,4.26,11.28,6.39,16.92l.92,2.42s.04.04.06.06c.08.16.21.31.4.37.55.2,1.14-.03,1.54-.41l8.88-8.41c.12-.12.25-.23.37-.35,4.09,3.17,8.17,6.34,12.26,9.5,1.04.81,2.08,1.61,3.12,2.42.45.35,1.94.04,2.1-.56,1.59-6.21,3.19-12.41,4.78-18.62,2.54-9.89,5.08-19.77,7.62-29.66.58-2.26,1.16-4.52,1.74-6.78.16-.63-1.27-.27-1.48-.19ZM20.44,35.16c-.28-.73-.55-1.46-.83-2.19.22-.13.44-.27.65-.39,9-5.18,18-10.35,27-15.53,1.17-.67,2.34-1.35,3.51-2.02-6.89,6.01-13.79,12.01-20.68,18.02-1.17,1.02-2.34,2.04-3.51,3.06-.1.07-.17.14-.2.22-.02.02-.03.05-.04.07,0,0,0,.01,0,.02,0,0,0,.02,0,.03,0,.03-.01.05,0,.08-.37,3.75-.74,7.49-1.11,11.24-1.59-4.2-3.18-8.41-4.76-12.61ZM27.09,50.1c.4-3.99.79-7.99,1.19-11.98,2.1,1.63,4.2,3.26,6.3,4.89-2.5,2.36-4.99,4.73-7.49,7.09ZM53,48.96c-.42,1.65-.85,3.31-1.27,4.96-4.93-3.82-9.86-7.64-14.79-11.47-.08-.13-.2-.25-.36-.3-.02,0-.03,0-.05,0l-5-3.88-2.9-2.25c8.12-7.08,16.25-14.16,24.37-21.23,1.18-1.03,2.36-2.06,3.54-3.09.91-.79-1.14-.55-1.5-.34-4.19,2.41-8.37,4.82-12.56,7.22-6.68,3.84-13.37,7.69-20.05,11.53-1.26.72-2.51,1.44-3.77,2.17-5.31-2.23-10.62-4.45-15.93-6.68,6.96-2.68,13.93-5.37,20.89-8.05,11.73-4.52,23.45-9.04,35.18-13.56,2.13-.82,4.26-1.64,6.39-2.46-1.52,5.93-3.05,11.85-4.57,17.78-2.54,9.89-5.08,19.77-7.62,29.66Z"/>
</svg>