<?xml version="1.0" encoding="UTF-8"?>
<svg id="Capa_1" data-name="Capa 1" xmlns="http://www.w3.org/2000/svg" viewBox="0 0 48 48">
  <defs>
    <style>
      .cls-1 {
        fill: #fff;
        stroke-width: 0px;
      }
    </style>
  </defs>
  <path class="cls-1" d="M0,23.05c.12-.88.22-1.76.37-2.63.55-3.43,1.87-6.56,3.83-9.41C7.16,6.69,11.14,3.67,16.07,1.91c3.34-1.19,6.8-1.53,10.33-1.2,4.4.41,8.36,1.97,11.89,4.59,4.3,3.2,7.21,7.39,8.74,12.52.98,3.29,1.19,6.66.72,10.06-.93,6.7-4.26,12-9.59,16.08-1.93,1.48-4.11,2.54-6.41,3.32-1.06.36-1.77-.15-1.78-1.26,0-2.08,0-4.15,0-6.23,0-1.03-.06-2.07-.51-3.02-.26-.56-.63-1.06-.95-1.59.87-.16,1.83-.28,2.75-.52,2.44-.63,4.63-1.71,6.12-3.86,1.08-1.56,1.58-3.35,1.8-5.21.17-1.41.22-2.83-.06-4.24-.3-1.57-.98-2.95-2.03-4.15-.19-.22-.22-.4-.13-.66.69-1.97.42-3.91-.31-5.8-.05-.12-.24-.23-.38-.25-.83-.12-1.62.12-2.36.46-1.21.57-2.38,1.23-3.58,1.82-.21.11-.51.17-.73.12-3.74-.93-7.47-.94-11.21,0-.22.06-.53,0-.73-.13-1.52-.97-3.13-1.74-4.88-2.2-.03,0-.06-.02-.09-.03-1.12-.24-1.32-.11-1.64.99-.5,1.7-.59,3.4,0,5.11.05.14,0,.38-.09.49-2.01,2.29-2.47,5-2.19,7.92.16,1.71.57,3.35,1.33,4.89,1.08,2.17,2.91,3.5,5.12,4.26,1.31.46,2.72.65,4.09.95.07.02.15.02.16.03-.35.64-.71,1.26-1.04,1.9-.11.22-.2.47-.21.71-.02.51-.29.73-.74.86-1.52.41-3.03.68-4.48-.21-.76-.47-1.33-1.12-1.78-1.89-.69-1.18-1.66-2.04-2.97-2.43-.49-.14-1.04-.1-1.56-.07-.32.02-.42.28-.21.54.21.27.42.57.71.73,1.29.75,2.01,1.93,2.59,3.23.33.74.64,1.48,1.27,2.05,1.01.91,2.22,1.25,3.53,1.31,1.13.05,2.26.01,3.47.01,0,.68,0,1.47,0,2.26,0,.61.02,1.22.02,1.83,0,1.12-.74,1.67-1.81,1.3-3.55-1.21-6.67-3.11-9.28-5.8-2.54-2.61-4.48-5.6-5.67-9.05-.68-1.96-1.07-3.97-1.23-6.03C.06,26.23.03,26.05,0,25.87c0-.94,0-1.87,0-2.81Z"/>
</svg>