<?xml version="1.0" encoding="UTF-8"?>
<svg id="Capa_1" data-name="Capa 1" xmlns="http://www.w3.org/2000/svg" viewBox="0 0 48 48">
  <defs>
    <style>
      .cls-1 {
        fill: #fff;
        stroke-width: 0px;
      }
    </style>
  </defs>
  <path class="cls-1" d="M24,0C10.75,0,0,10.75,0,24h0c0,13.25,10.75,24,24,24s24-10.75,24-24h0C48,10.75,37.25,0,24,0ZM18.08,34.7h-4.97v-16.05h4.97v16.05ZM15.58,16.55c-1.62,0-2.94-1.33-2.94-2.96s1.31-2.96,2.94-2.96,2.94,1.33,2.94,2.96-1.31,2.96-2.94,2.96ZM36.7,34.7h-4.94v-8.42c0-2.31-.88-3.6-2.7-3.6-1.99,0-3.03,1.34-3.03,3.6v8.42h-4.76v-16.05h4.76v2.16s1.43-2.65,4.84-2.65,5.84,2.08,5.84,6.38v10.16Z"/>
</svg>