<?xml version="1.0" encoding="UTF-8"?>
<svg id="Capa_1" data-name="Capa 1" xmlns="http://www.w3.org/2000/svg" viewBox="0 0 48 48">
  <defs>
    <style>
      .cls-1 {
        fill: #fff;
        stroke-width: 0px;
      }
    </style>
  </defs>
  <path class="cls-1" d="M19.68,21.59c.46-.28.68-.77.68-1.48,0-.78-.3-1.3-.9-1.55-.52-.18-1.18-.26-1.99-.26h-3.66v3.71h4.08c.73,0,1.32-.14,1.78-.42Z"/>
  <path class="cls-1" d="M19.64,25.08c-.4-.18-.96-.28-1.68-.28h-4.14v4.48h4.08c.73,0,1.3-.1,1.7-.3.74-.37,1.1-1.07,1.1-2.1,0-.87-.36-1.47-1.07-1.8Z"/>
  <path class="cls-1" d="M24,0h0C10.75,0,0,10.75,0,24h0c0,13.25,10.75,24,24,24h0c13.25,0,24-10.75,24-24h0C48,10.75,37.25,0,24,0ZM27.5,16.35h7.3v1.7h-7.3v-1.7ZM23.51,29.8c-.32.52-.72.96-1.19,1.32-.54.41-1.17.69-1.9.84-.73.15-1.52.23-2.37.23h-7.57V15.39h8.12c2.05.03,3.5.63,4.35,1.79.51.71.77,1.57.77,2.57s-.26,1.85-.78,2.47c-.29.35-.72.67-1.28.96.86.31,1.5.81,1.94,1.48.44.68.65,1.5.65,2.46s-.25,1.89-.75,2.68ZM37.53,26.89h-9.05c.05,1.25.48,2.12,1.3,2.62.5.31,1.09.47,1.79.47.74,0,1.34-.19,1.8-.57.25-.21.48-.49.67-.85h3.32c-.09.74-.49,1.49-1.21,2.25-1.11,1.21-2.67,1.81-4.67,1.81-1.65,0-3.11-.51-4.38-1.53-1.26-1.02-1.9-2.68-1.9-4.98,0-2.15.57-3.8,1.71-4.95,1.14-1.15,2.62-1.72,4.44-1.72,1.08,0,2.06.19,2.92.58.87.39,1.58,1,2.15,1.84.51.74.84,1.59.99,2.57.09.57.12,1.39.11,2.47Z"/>
  <path class="cls-1" d="M31.36,22.11c-.83,0-1.48.24-1.94.71-.46.47-.75,1.11-.87,1.92h5.6c-.06-.86-.35-1.52-.87-1.96-.52-.45-1.16-.67-1.93-.67Z"/>
</svg>