<?xml version="1.0" encoding="UTF-8"?>
<svg xmlns="http://www.w3.org/2000/svg" viewBox="0 0 37.33 64">
  <defs>
    <style>
      .cls-1 {
        isolation: isolate;
      }

      .cls-2 {
        fill: #bd1540;
        stroke-width: 0px;
      }

      .cls-3 {
        mix-blend-mode: multiply;
      }
    </style>
  </defs>
  <g class="cls-1">
    <g id="Capa_1" data-name="Capa 1">
      <g class="cls-3">
        <path class="cls-2" d="M28.06,46.19c-.18-.46-.45-.87-.79-1.25.02-.01.04-.02.05-.04.04-.03.06-.05.06-.08,0-.04-.01-.09-.04-.15-.02-.06-.05-.11-.08-.17-.08-.16-.15-.34-.22-.52-.07-.18-.1-.4-.1-.66,0-.2,0-.38.02-.57.01-.18.03-.35.04-.5.02-.15.03-.29.05-.4.02-.12.04-.21.05-.28,0,0,0,0,0,0,.01-.07.02-.14.03-.2.01-.06.02-.1.02-.13,0-.03-.01-.06-.04-.08-.03-.02-.06-.05-.1-.06-.04-.02-.08-.03-.12-.04-.04,0-.07-.01-.09-.01-.04,0-.08.04-.1.11-.03.07-.05.16-.08.26-.11.41-.28.78-.52,1.11-.24.33-.51.62-.79.86-.09.08-.18.14-.27.21-.2.14-.4.26-.6.34-.29.13-.54.2-.74.2-.16,0-.36-.08-.59-.23-.19-.13-.39-.28-.59-.46-.04-.04-.08-.07-.12-.11-.24-.23-.48-.48-.71-.74-.23-.27-.43-.52-.59-.75-.21-.31-.38-.55-.52-.73-.13-.18-.24-.32-.32-.41-.08-.09-.14-.15-.19-.18-.05-.02-.08-.04-.12-.04-.03,0-.07,0-.12,0-.05,0-.1.01-.15.02-.05.01-.09.02-.13.04-.04.02-.06.04-.06.06,0,.05.03.11.08.18.05.07.11.14.17.22.06.08.13.17.2.27.07.1.13.21.2.33.06.12.11.25.15.39.04.14.06.3.06.47,0,.14-.03.31-.08.52-.05.21-.11.42-.19.64-.08.22-.16.42-.26.61-.1.19-.19.34-.28.44-.04.04-.07.08-.1.12,0,0,0,0,0,0-.2.23-.37.48-.49.75-.2.43-.3.9-.3,1.41,0,.85.17,1.57.5,2.16.33.59.75,1.06,1.26,1.42.51.36,1.07.62,1.68.78.61.16,1.2.24,1.75.24.74,0,1.4-.11,1.96-.33.56-.22,1.04-.51,1.41-.87.38-.36.66-.77.86-1.23.19-.46.29-.91.29-1.37,0-.55-.11-1.09-.32-1.61ZM25.97,43.7l.33-.3s.02,0,.02,0c.01.05.02.12.04.21.01.1.03.21.05.32.02.11.03.22.05.33,0,.04,0,.07.01.1,0,0,0,.02-.02,0-.22-.16-.46-.29-.74-.4-.02,0-.03-.01-.05-.02.1-.08.21-.16.31-.25ZM20.79,43.77c.06-.19.11-.38.17-.57,0,0,.01-.01.02,0l.51.54s.09.09.13.14c0,0,0,.02,0,.02-.11.02-.22.05-.33.08-.23.07-.43.16-.62.25,0,0-.02,0-.01-.01.05-.15.09-.3.14-.45ZM26.82,48.82c-.3.39-.65.7-1.05.92-.4.22-.81.38-1.23.47-.42.09-.75.14-.99.14-.5,0-.98-.06-1.44-.19-.46-.13-.87-.31-1.22-.56-.35-.24-.64-.54-.86-.9-.22-.36-.34-.77-.36-1.25v-.09c0-.4.08-.77.24-1.1.16-.33.4-.63.73-.87.33-.25.74-.44,1.25-.58.11-.03.23-.06.35-.08.31-.06.63-.04.92.05h0c.14.04.29.06.44.06s.31-.02.47-.06c.46-.11.94-.08,1.38.09,0,0,0,0,0,0,.47.19.84.42,1.1.69.27.27.45.57.56.89.1.32.15.62.15.88,0,.6-.15,1.09-.45,1.48Z"/>
        <g>
          <path class="cls-2" d="M10.59,25.51c-.01.1-.07.17-.09.23,0,.02,0,.03-.01.05,0,0-.02.01-.02.02-.11.12-.2.26-.27.43-.08.17-.14.35-.19.53-.05.18-.07.5-.07.64s.06.24.17.33c.12.09.35.13.69.13.23,0,.56,0,.98-.03.42-.02,2.15-.06,2.88-.06.23,0,.5,0,.78,0,0,.51,0,1.01-.01,1.5,0,.61-.03,1.27-.07,2-.06,1.15-.09,2.15-.09,3,0,.23.03.42.09.58.06.15.21.23.46.23.86,0,1.3-.43,1.3-1.3v-5.04s0-.16.01-.37c0-.21.05-.41.13-.61.25-.08.71-.14,1.37-.2s1.38-.11,2.16-.16c.78-.05,1.55-.09,2.31-.12.76-.03,1.38-.04,1.86-.04l.29,11.11c.02.31.07.52.14.65.08.13.27.19.58.19.25,0,.47-.17.65-.52.18-.35.27-.73.27-1.15l.06-9.81c0-.15,0-.28.03-.37.02-.1.11-.14.26-.14.08,0,.15,0,.23.03.08.02.15.03.23.03.23,0,.4-.15.52-.45.12-.3.17-.53.17-.71,0-.19-.04-.31-.13-.36-.09-.05-.21-.07-.36-.07s-.31,0-.48.01c-.16,0-.32.02-.48.04.02-1.25.06-2.24.12-2.98.06-.74.12-11.78.2-12.18.08-.4.16-.69.24-.86.09-.17.16-.32.22-.43.1-.13.14-.26.14-.37,0-.27-.19-.4-.58-.4-.13,0-.34.02-.61.07-.27.05-.54.12-.82.2-.28.09-.51.19-.71.3-.19.12-.29.25-.29.4.04.62.08,1.18.12,1.7.04.52.06,11.46.06,11.88v1.27c0,.17,0,.37-.01.58,0,.21-.02.5-.04.86h-7.66v-.06c.04-.75.06-1.47.07-2.18,0-.7.01-6.13.01-6.69,0-.33.02-.6.07-.82.05-.22.1-.41.16-.58.06-.16.11-.3.16-.42.05-.12.07-.23.07-.35,0-.08-.08-.18-.24-.3-.16-.12-.36-.24-.59-.35-.23-.11-.47-.2-.72-.27-.25-.08-.46-.12-.63-.12-.21,0-.41.06-.61.17-.19.12-.36.24-.5.39s-.26.28-.35.42c-.09.13-.13.23-.13.29,0,.13.06.26.17.37.12.12.23.22.35.32.21.19.38.36.5.49.12.13.2.37.22.69.02.38.04,5.77.06,6.56.01.62.03,1.43.05,2.42-1.03,0-2.11,0-2.44,0-.02,0-.04,0-.06,0-.01-.12-.02-.22-.02-.3v-.22c0-.11,0-.28-.01-.53,0-.25-.02-.57-.04-.97-.02-.39-.04-.9-.06-1.51-.02-.42-.03-1.3-.04-1.53,0-.23-.01-.51-.01-.84,0-.56,0-1.12.03-1.69.02-.57.03-1.13.03-1.69,0-.48-.02-1.01-.06-1.58-.04-.58-.08-1.13-.12-1.67-.04-.54-.08-1.02-.12-1.45-.04-.43-.06-.73-.06-.91s.12-.26.35-.26c.04,0,.08,0,.13.01.05,0,.11.02.19.04l.29.06,7.27.2c.38.02.69.11.91.27.22.16.46.24.71.24.33,0,.49-.13.49-.37,0-.04-.02-.17-.07-.39-.05-.22-.12-.46-.2-.71-.09-.25-.18-.48-.29-.68-.11-.2-.23-.3-.36-.3-.15,0-.3.02-.43.06-.13.04-.3.1-.49.17-.04.02-.08.04-.13.06-.05.02-.16.04-.35.06-.18.02-2.54.03-2.9.04-.37,0-.87.01-1.53.01h-.98c-.62,0-1.09,0-1.44-.01-.35,0-.62-.02-.81-.04-.19-.02-.32-.04-.39-.07-.07-.03-.12-.05-.16-.07-.15-.08-.32-.13-.49-.16-.17-.03-.31-.04-.4-.04-.12,0-.24.07-.36.2-.13.13-.24.28-.36.45-.12.16-.21.33-.27.49-.07.16-.1.27-.1.33,0,.08.02.14.06.2.04.06.09.13.14.23.12.17.2.31.26.42.06.11.1.32.12.65.02.33.03.7.04,1.12,0,.42.01.94.01,1.56v4.24c0,1.19-.06,4.62-.3,6.63Z"/>
          <path class="cls-2" d="M33.17,58.29c-.11-.13-.22-.2-.33-.2-.02,0-.04,0-.06,0,0-.01,0-.03-.01-.05-.02-.06-.05-.13-.09-.23-.29-.73-.49-1.63-.61-2.69-.12-1.07-.17-2.19-.17-3.39V9.76c0-.62,0-1.13.01-1.56,0-.42.02-.8.04-1.12.02-.33.06-.54.12-.65.06-.11.14-.24.26-.42.06-.1.11-.17.14-.23.04-.06.06-.13.06-.2,0-.06-.03-.17-.1-.33-.07-.16-.16-.33-.27-.49-.12-.16-.23-.31-.36-.45-.12-.13-.24-.2-.36-.2-.1,0-.23.01-.4.04-.17.03-.34.08-.49.16-.04.02-.09.04-.16.07-.07.03-.2.05-.39.07-.19.02-.46.03-.81.04-.35,0-.83.01-1.44.01h-.98c-.65,0-1.16,0-1.53-.01-.36,0-17.12-.02-17.3-.04-.18-.02-.3-.04-.35-.06-.05-.02-.09-.04-.13-.06-.17-.07-.31-.12-.43-.16-.05-.04-.12-.08-.19-.12-.27-.15-.51-.23-.72-.23-.13,0-.32.07-.56.22-.24.14-.48.31-.71.5-.23.19-.43.39-.61.61-.17.21-.26.37-.26.49,0,.21.05.4.16.56.11.16.22.32.33.48.12.13.18.28.19.43,0,.15.02.38.04.69.02.6.04,1.21.06,1.83.02.62.03,1.25.03,1.89v3.08c0,1.61.02,38.84.06,39.74.04.9.09,1.58.16,2.02.07.44.16.71.29.81.12.1.28.14.48.14.12,0,.23-.02.33-.07.11-.05.2-.16.29-.33.09-.17.16-.44.22-.79.06-.36.09-.85.09-1.48l.03-40.72c.02-2.15.05-3.86.1-5.13.04-1.09.08-1.94.11-2.55.21-.11.46-.18.78-.2l21.66-.2.29-.06c.08-.02.14-.03.19-.04.05,0,.09-.01.13-.01.23,0,.35.09.35.26s-.02.48-.06.91c-.04.43-.08.92-.12,1.45-.04.54-.08,1.1-.12,1.67-.04.58-.06,1.1-.06,1.58,0,.56,0,1.12.03,1.69.02.57.03,38.87.03,39.43,0,.33,0,.61-.01.84,0,.23-.02.56-.04.98-.02.61-.04,1.12-.06,1.51-.02.39-.03.72-.04.97,0,.25-.01.43-.01.53v.22c0,.1,0,.22-.03.36,0,.07-.02.15-.04.25-.29,0-.6.01-.95.01h-1.04c-.31,0-13.4,0-13.69-.01-.29,0-.59-.01-.91-.01h-1.05c-.81,0-1.53,0-2.16-.03-.63-.02-1.21-.04-1.71-.07-.51-.03-.98-.06-1.4-.09-.42-.03-.83-.05-1.21-.07-.13,0-.25.06-.36.17-.11.12-.2.26-.27.43-.08.17-.14.35-.19.53-.05.18-.07.34-.07.48s.06.24.17.33c.12.09.35.13.69.13.23,0,.56,0,.98-.03.42-.02.92-.04,1.48-.06.57-.02,1.2-.04,1.9-.06.7-.02,1.44-.03,2.2-.03.4,0,.85,0,1.34.01.49,0,13.84.02,14.46.03.61,0,1.32.03,2.12.06.8.03,1.7.05,2.72.07.12,0,.22-.05.32-.16.1-.11.14-.35.14-.73,0-.52-.05-.85-.16-.98Z"/>
          <path class="cls-2" d="M9.79,54.69c0,.21.06.41.17.61.12.19.24.36.39.5s.28.26.42.35c.13.09.23.13.29.13.13,0,.26-.06.37-.17.12-.12.22-.23.32-.35.19-.21.36-.38.49-.5.12-.11.33-.18.61-.21.5-.03,1.09-.07,2.07-.1,1.27-.05,2.18-.08,4.33-.1l3.15-.03c.63,0,1.13-.03,1.48-.09.36-.06.62-.13.79-.22.17-.09.28-.18.33-.29.05-.11.07-.22.07-.33,0-.19-.05-.35-.14-.48-.1-.13-.37-.22-.81-.29-.44-.07-1.11-.12-2.02-.16-.9-.04-.56-.06-2.17-.06h-3.08c-.63,0-1.26,0-1.89-.03-.48-.01-1.27-.03-1.73-.04-.03-.14-.06-.27-.07-.37-.02-.14-.03-.26-.03-.36v-.22c0-.11,0-.28-.01-.53,0-.25-.02-.57-.04-.97-.02-.39-.04-.9-.06-1.51-.02-.42-.03-.75-.04-.98,0-.23-.01-.51-.01-.84,0-.56,0-1.12.03-1.69.02-.57.03-1.13.03-1.69,0-.48-.02-1.01-.06-1.58-.04-.58-.08-1.13-.12-1.67-.04-.54-.08-1.02-.12-1.45-.04-.43-.06-.73-.06-.91s.12-.26.35-.26c.04,0,.08,0,.13.01.05,0,.11.02.19.04l.29.06,7.59.2c.38.02.69.11.91.27.22.16.46.24.71.24.33,0,.49-.13.49-.37,0-.04-.02-.17-.07-.39-.05-.22-.12-.46-.2-.71-.09-.25-.18-.48-.29-.68-.11-.2-.23-.3-.36-.3-.15,0-.3.02-.43.06-.13.04-.3.1-.49.17-.04.02-.08.04-.13.06-.05.02-.16.04-.35.06-.18.02-2.54.03-2.9.04-.37,0-.87.01-1.53.01h-.98c-.62,0-1.41,0-1.76-.01-.35,0-.62-.02-.81-.04-.19-.02-.32-.04-.39-.07-.07-.03-.12-.05-.16-.07-.15-.08-.32-.13-.49-.16-.17-.03-.31-.04-.4-.04-.12,0-.24.07-.36.2-.13.13-.24.28-.36.45-.12.16-.21.33-.27.49-.07.16-.1.27-.1.33,0,.08.02.14.06.2.04.06.09.13.14.23.12.17.2.31.26.42.06.11.1.32.12.65.02.33.03.7.04,1.12,0,.42.01.94.01,1.56v4.24c0,1.19-.05,2.51-.07,3.58-.01,1.07-.04,1.9-.23,2.65-.02.06-.03.13-.05.19-.07.03-.15.1-.25.23-.12.16-.24.36-.35.59-.11.23-.2.47-.27.72-.08.25-.12.46-.12.63Z"/>
        </g>
      </g>
    </g>
  </g>
</svg>